<?xml version="1.0" encoding="UTF-8"?>
<!DOCTYPE svg PUBLIC "-//W3C//DTD SVG 1.1//EN" "http://www.w3.org/Graphics/SVG/1.1/DTD/svg11.dtd">
<!-- Creator: CorelDRAW X7 -->
<svg xmlns="http://www.w3.org/2000/svg" xml:space="preserve" width="4.52756in" height="5.90551in" version="1.1" style="shape-rendering:geometricPrecision; text-rendering:geometricPrecision; image-rendering:optimizeQuality; fill-rule:evenodd; clip-rule:evenodd"
viewBox="0 0 4528 5906"
 xmlns:xlink="http://www.w3.org/1999/xlink">
 <defs>
  <style type="text/css">
   <![CDATA[
    .fil3 {fill:#FEFEFE}
    .fil6 {fill:#F8ED3F}
    .fil1 {fill:#007CC4}
    .fil2 {fill:#DA251C}
    .fil8 {fill:#FBF501}
    .fil0 {fill:#FEF502}
    .fil5 {fill:#282828;fill-rule:nonzero}
    .fil4 {fill:black;fill-rule:nonzero}
    .fil7 {fill:#241443;fill-rule:nonzero}
   ]]>
  </style>
 </defs>
 <g id="Layer_x0020_1">
  <metadata id="CorelCorpID_0Corel-Layer"/>
  <g id="_2007126116016">
   <polygon class="fil0" points="570,2545 3968,2545 3968,1007 3682,737 856,737 570,1007 "/>
   <path class="fil1" d="M3963 2907l0 239c-69,429 -631,934 -1694,1513l0 0 0 0c-1063,-579 -1625,-1084 -1694,-1513l0 -239c3,2 6,4 10,4 105,14 196,43 274,88 77,45 141,105 192,181 3,5 8,7 13,7l0 0 950 0 93 189c3,5 9,9 15,9l0 0 294 0c7,0 13,-4 15,-10l93 -188 950 0c6,0 11,-3 14,-8 50,-75 114,-135 191,-180 78,-45 170,-74 275,-88 4,0 7,-2 9,-4z"/>
   <path class="fil2" d="M575 2699l3388 0 0 184c-2,-2 -5,-4 -9,-4l0 0c-114,-17 -224,-10 -327,21 -100,29 -194,80 -282,153l-124 -122c-6,-6 -16,-6 -23,0l-122 121 -123 -121c-6,-6 -16,-6 -23,0l-122 121 -123 -121c-6,-6 -16,-6 -23,0l-122 121 -123 -121c-6,-6 -16,-6 -23,1l0 0 -125 115 -126 -116c-6,-6 -16,-6 -22,0l0 0 -123 121 -122 -121c-7,-6 -17,-6 -23,0l-123 121 -122 -121c-7,-6 -17,-6 -23,0l-123 121 -122 -121c-7,-6 -17,-6 -23,0l-124 122c-88,-73 -182,-124 -282,-153 -103,-31 -213,-38 -327,-21 -4,0 -7,2 -9,4l0 -184z"/>
   <path class="fil3" d="M477 3171c74,452 671,984 1792,1595l0 0 0 0c1121,-611 1718,-1143 1792,-1595l0 -2256 -302 -285 -2980 0 -302 285 0 2256zm93 -25c69,429 636,934 1699,1513l0 0 0 0c1063,-579 1630,-1084 1699,-1513l0 -2139 -286 -270 -2826 0 -286 270 0 2139z"/>
   <path class="fil4" d="M493 3170c37,222 203,464 498,727 296,264 722,547 1278,850 556,-303 982,-586 1278,-850 295,-263 461,-505 497,-727l0 -2248 -291 -275 -2968 0 -292 275 0 2248zm476 751c-212,-189 -461,-457 -508,-749l0 -2257 0 -7 5 -5 301 -285 5 -4 7 0 2980 0 7 0 4 4 302 285 5 5 0 7 0 2257c-47,292 -296,560 -508,749 -299,266 -729,552 -1290,858 -10,2 -19,1 -26,-4 -558,-304 -986,-589 -1284,-854zm-383 -776c35,211 192,440 472,689 281,250 684,519 1211,807 527,-288 930,-557 1211,-807 280,-249 437,-478 472,-689l0 -2131 -276 -261 -2814 0 -276 261 0 2131zm450 714c-202,-180 -438,-434 -483,-711l0 -2141 0 -7 6 -5 285 -270 5 -4 7 0 2826 0 7 0 5 4 285 270 6 5 0 7 0 2141c-45,277 -281,531 -483,711 -284,252 -691,523 -1223,813 -7,2 -16,1 -26,-3 -529,-289 -935,-559 -1217,-810z"/>
   <path class="fil3" d="M2269 924c251,133 435,284 491,475 22,76 18,152 0,212 -42,138 -103,231 -172,282l483 0c0,45 61,90 122,90l0 74c-61,0 -122,44 -122,89l-1604 0c0,-45 -61,-89 -122,-89l0 -74c61,0 122,-45 122,-90l483 0c-69,-51 -130,-144 -172,-282 -18,-60 -22,-136 0,-212 56,-191 240,-342 491,-475zm-1009 1319c66,0 133,-49 133,-97l1752 0c0,48 67,97 133,97l0 80c-66,0 -133,49 -133,97l-117 0 0 -149 -142 0 0 149 -136 0 0 -149 -142 0 0 149 -119 0 0 -149 -142 0 0 149 -144 0 0 -149 -142 0 0 149 -118 0 0 -149 -142 0 0 149 -136 0 0 -149 -142 0 0 149 -130 0c0,-48 -67,-97 -133,-97l0 -80z"/>
   <path class="fil4" d="M2277 909c126,68 236,139 322,219 86,80 148,168 176,266 11,38 16,76 16,111 0,40 -6,78 -16,110 -20,69 -46,127 -75,175 -21,34 -44,63 -68,87l439 0 16 0 0 16c0,17 13,35 31,49 21,15 48,25 75,25l16 0 0 16 0 74 0 16 -16 0c-27,0 -54,10 -75,25 -13,9 -22,20 -27,32l54 0 16 0 0 16c0,19 15,38 36,54 22,16 52,27 81,27l17 0 0 16 0 80 0 17 -17 0c-29,0 -59,11 -82,27 -21,15 -35,35 -35,53l0 17 -16 0 -117 0 -17 0 0 -17 0 -133 -109 0 0 133 0 17 -16 0 -136 0 -17 0 0 -17 0 -133 -109 0 0 133 0 17 -16 0 -119 0 -16 0 0 -17 0 -133 -110 0 0 133 0 17 -16 0 -144 0 -16 0 0 -17 0 -133 -109 0 0 133 0 17 -17 0 -118 0 -17 0 0 -17 0 -133 -109 0 0 133 0 17 -16 0 -136 0 -17 0 0 -17 0 -133 -109 0 0 133 0 17 -16 0 -130 0 -17 0 0 -17c0,-18 -13,-38 -34,-53 -23,-16 -53,-27 -82,-27l-17 0 0 -17 0 -80 0 -16 17 0c29,0 59,-11 81,-27 21,-16 35,-35 35,-54l0 -16 17 0 54 0c-5,-12 -15,-23 -27,-32 -21,-15 -48,-25 -75,-25l-16 0 0 -16 0 -74 0 -16 16 0c27,0 54,-10 75,-25 18,-14 31,-32 31,-49l0 -16 16 0 439 0c-24,-24 -47,-53 -68,-87 -29,-48 -55,-106 -75,-175 -10,-32 -16,-70 -16,-110 0,-35 5,-73 16,-111 28,-98 90,-186 176,-266 86,-80 196,-151 322,-219l8 -4 8 4zm316 1001l-5 0 -638 0 -5 0 -463 0c-6,21 -22,42 -43,58 -22,16 -49,27 -77,30l0 43c28,3 56,15 77,30 21,16 37,37 43,58l1574 0c6,-21 22,-42 43,-58 21,-15 49,-27 77,-30l0 -43c-28,-3 -55,-14 -77,-30 -21,-16 -37,-37 -43,-58l-463 0zm-1232 316c-24,17 -54,30 -85,33l0 49c31,3 61,15 85,33 23,17 41,39 46,63l100 0 0 -133 0 -16 16 0 142 0 16 0 0 16 0 133 103 0 0 -133 0 -16 17 0 142 0 16 0 0 16 0 133 86 0 0 -133 0 -16 16 0 142 0 17 0 0 16 0 133 111 0 0 -133 0 -16 16 0 142 0 16 0 0 16 0 133 86 0 0 -133 0 -16 17 0 142 0 16 0 0 16 0 133 103 0 0 -133 0 -16 17 0 142 0 16 0 0 16 0 133 87 0c5,-24 23,-46 46,-63 24,-18 54,-30 85,-33l0 -49c-31,-3 -61,-16 -85,-33 -23,-17 -41,-40 -46,-64l-1724 0c-5,24 -23,47 -46,64zm1216 -1074c-82,-76 -187,-145 -308,-210 -121,65 -226,134 -308,210 -82,76 -140,159 -167,251 -10,35 -14,69 -14,102 0,37 5,71 14,101 20,66 44,122 72,167 27,45 57,79 90,104l626 0c33,-25 63,-59 90,-104 28,-45 52,-101 72,-167 9,-30 14,-64 14,-101 0,-33 -4,-67 -14,-102 -27,-92 -85,-175 -167,-251z"/>
   <path class="fil3" d="M586 2562l481 0 481 0 481 0 480 0 481 0 481 0 481 0 0 121 -481 0 -481 0 -481 0 -480 0 -481 0 -481 0 -481 0 0 -121zm243 -138l576 0 576 0 576 0 576 0 576 0 0 121 -576 0 -576 0 -576 0 -576 0 -576 0 0 -121z"/>
   <path class="fil4" d="M3725 2545l227 0 16 0 0 17 0 121 0 16 -16 0 -465 0 -16 0 -16 0 -448 0 -17 0 -16 0 -448 0 -17 0 -16 0 -448 0 -16 0 -17 0 -448 0 -16 0 -17 0 -448 0 -16 0 -16 0 -465 0 -16 0 0 -16 0 -121 0 -17 16 0 227 0 0 0 0 -121 0 -17 16 0 560 0 16 0 16 0 544 0 16 0 16 0 544 0 16 0 16 0 544 0 16 0 16 0 560 0 16 0 0 17 0 121 0 0zm-2336 -17l0 -88 -543 0 0 88 543 0zm576 0l0 -88 -544 0 0 88 544 0zm576 0l0 -88 -544 0 0 88 544 0zm576 0l0 -88 -544 0 0 88 544 0zm575 -88l-543 0 0 88 543 0 0 -88zm-2641 226l0 -88 -449 0 0 88 449 0zm480 0l0 -88 -448 0 0 88 448 0zm481 0l0 -88 -448 0 0 88 448 0zm481 0l0 -88 -448 0 0 88 448 0zm481 0l0 -88 -448 0 0 88 448 0zm481 0l0 -88 -448 0 0 88 448 0zm481 -88l-449 0 0 88 449 0 0 -88z"/>
   <path class="fil0" d="M2268 3158c199,0 361,162 361,362 0,43 -8,85 -22,124 -109,-40 -219,-69 -334,-71 -123,-1 -236,26 -346,66 -13,-37 -21,-78 -21,-119 0,-200 162,-362 362,-362z"/>
   <path class="fil5" d="M2268 3147c103,0 196,42 263,109 67,68 109,161 109,264 0,22 -2,44 -6,65 -3,22 -9,43 -17,63l-3 10 -11 -4c-54,-20 -108,-37 -163,-49 -55,-13 -110,-20 -167,-21 -61,-1 -119,6 -176,17 -57,12 -112,28 -167,48l-10 4 -4 -11c-6,-19 -12,-39 -15,-60 -4,-20 -5,-41 -5,-62 0,-103 41,-196 109,-264 67,-67 160,-109 263,-109zm248 125c-64,-64 -151,-103 -248,-103 -97,0 -185,39 -248,103 -63,63 -103,151 -103,248 0,20 2,39 5,58 3,16 7,32 11,47 53,-18 105,-34 160,-45 58,-12 118,-18 180,-18 59,1 116,9 172,22 52,11 104,28 156,46 5,-16 9,-32 12,-49 4,-20 5,-40 5,-61 0,-97 -39,-185 -102,-248z"/>
   <path class="fil0" d="M2269 3069l-137 -126 -134 132 -134 -132 -134 132 -134 -132 -134 132 -134 -132 -134 132c-180,-153 -383,-213 -608,-180 215,28 375,120 478,276l960 0 98 197c98,0 196,0 294,0l98 -197 960 0c103,-156 263,-248 478,-276 -225,-33 -428,27 -608,180l-134 -132 -134 132 -134 -132 -134 132 -134 -132 -134 132 -134 -132 -137 126z"/>
   <path class="fil5" d="M2258 3081l-125 -116 -123 122c-7,6 -17,6 -23,0l-123 -121 -122 121c-7,6 -17,6 -23,0l-123 -121 -122 121c-7,6 -17,6 -23,0l-123 -121 -122 121c-6,6 -16,6 -22,1l0 0c-89,-76 -183,-128 -282,-157 -63,-19 -127,-28 -195,-29 62,17 118,40 168,69 79,46 145,107 198,184l951 0c7,0 13,4 15,10l93 187 274 0 93 -188c3,-6 9,-9 15,-9l0 0 951 0c53,-77 118,-138 198,-184 50,-29 106,-52 168,-69 -68,1 -133,10 -195,29 -99,29 -193,81 -282,157 -7,5 -16,5 -22,-2l-122 -120 -123 121c-6,6 -16,6 -23,0l-122 -121 -123 121c-6,6 -16,6 -23,0l-122 -121 -123 121c-6,6 -16,6 -23,0l-123 -122 -125 116c-6,6 -16,6 -22,0zm-115 -150l126 116 125 -115 0 0c7,-7 17,-7 23,-1l123 121 122 -121c7,-6 17,-6 23,0l123 121 122 -121c7,-6 17,-6 23,0l123 121 122 -121c7,-6 17,-6 23,0l124 122c88,-73 182,-124 282,-153 103,-31 213,-38 327,-21l0 0c7,1 13,7 14,14 1,9 -5,17 -14,18 -105,14 -197,43 -275,88 -77,45 -141,105 -191,180 -3,5 -8,8 -14,8l-950 0 -93 188c-2,6 -8,10 -15,10l-294 0 0 0c-6,0 -12,-4 -15,-9l-93 -189 -950 0 0 0c-5,0 -10,-2 -13,-7 -51,-76 -115,-136 -192,-181 -78,-45 -169,-74 -274,-88 -8,0 -14,-6 -15,-14 -1,-8 5,-17 14,-18 114,-17 224,-10 327,21 100,29 194,80 282,153l124 -122c6,-6 16,-6 23,0l122 121 123 -121c6,-6 16,-6 23,0l122 121 123 -121c6,-6 16,-6 23,0l122 121 123 -121 0 0c6,-6 16,-6 22,0z"/>
   <path class="fil6" d="M2675 3729c-76,148 -230,249 -407,249 -180,0 -335,-104 -410,-254 134,-55 267,-99 414,-97 137,2 268,47 403,102z"/>
   <path class="fil5" d="M2685 3734c-40,77 -100,141 -173,186 -71,43 -155,68 -244,68 -91,0 -175,-25 -247,-70 -74,-45 -134,-111 -173,-190l-5 -10 11 -4c67,-28 135,-53 204,-70 69,-18 140,-28 215,-27 69,0 137,12 204,31 68,18 134,43 202,71l11 5 -5 10zm-185 168c67,-41 122,-99 160,-167 -63,-26 -126,-49 -188,-66 -66,-19 -132,-30 -200,-31 -72,-1 -141,9 -209,27 -64,16 -127,39 -190,64 37,70 93,129 160,171 68,42 149,67 235,67 85,0 165,-24 232,-65z"/>
   <path class="fil6" d="M2585 3694c-62,111 -181,187 -317,187 -139,0 -259,-78 -320,-192 105,-38 211,-63 324,-62 106,2 209,29 313,67z"/>
   <path class="fil5" d="M2594 3699c-32,58 -80,107 -137,141 -55,33 -120,52 -189,52 -70,0 -136,-20 -192,-53 -58,-35 -105,-85 -137,-145l-6 -11 12 -5c52,-18 105,-34 160,-45 54,-11 110,-17 168,-16 53,0 106,7 159,19 52,12 104,28 156,48l12 4 -6 11zm-148 123c50,-30 93,-72 123,-122 -48,-17 -95,-32 -142,-43 -51,-11 -103,-18 -155,-19 -56,-1 -110,5 -163,16 -49,10 -97,24 -145,41 30,51 72,94 123,125 53,32 115,50 181,50 65,0 126,-18 178,-48z"/>
   <path class="fil7" d="M1136 3902c4,-6 11,-10 19,-10 214,-16 392,-93 563,-167 181,-79 353,-154 555,-152 182,3 348,73 525,149 176,75 363,155 583,172 8,0 14,4 19,10 -17,13 -34,27 -51,41 -216,-22 -400,-100 -573,-173 -171,-74 -333,-142 -504,-145 -190,-2 -357,71 -533,147 -167,73 -341,149 -552,170 -18,-14 -35,-28 -51,-42zm681 478c3,-5 7,-9 13,-11 132,-52 270,-81 414,-81 144,0 294,28 451,89 6,2 10,6 13,11 -17,10 -35,21 -52,32 -144,-54 -281,-78 -412,-78 -130,0 -254,25 -375,70 -18,-11 -35,-22 -52,-32zm-283 -182c3,-4 7,-7 12,-9 260,-112 509,-163 748,-160 240,3 469,60 689,167 5,2 9,5 11,9 -16,11 -32,22 -49,33 -208,-99 -425,-152 -651,-155 -227,-3 -463,45 -711,149 -16,-12 -33,-23 -49,-34z"/>
   <circle class="fil0" cx="2268" cy="3520" r="271"/>
   <path class="fil5" d="M2268 3238c78,0 148,31 199,82 51,51 83,122 83,200 0,77 -32,148 -83,199 -51,51 -121,83 -199,83 -78,0 -149,-32 -200,-83 -51,-51 -82,-122 -82,-199 0,-78 31,-149 82,-200 51,-51 122,-82 200,-82zm184 98c-47,-48 -112,-77 -184,-77 -72,0 -137,29 -184,77 -47,47 -76,112 -76,184 0,71 29,137 76,184 47,47 112,76 184,76 72,0 137,-29 184,-76 47,-47 76,-113 76,-184 0,-72 -29,-137 -76,-184z"/>
   <circle class="fil0" cx="2268" cy="3520" r="195"/>
   <path class="fil5" d="M2268 3313c57,0 108,24 146,61 37,37 60,89 60,146 0,56 -23,108 -60,145 -38,38 -89,61 -146,61 -57,0 -109,-23 -146,-61 -37,-37 -60,-89 -60,-145 0,-57 23,-109 60,-146 37,-37 89,-61 146,-61zm130 76c-33,-33 -79,-54 -130,-54 -51,0 -97,21 -131,54 -33,34 -54,80 -54,131 0,50 21,97 54,130 34,33 80,54 131,54 51,0 97,-21 130,-54 34,-33 54,-80 54,-130 0,-51 -20,-97 -54,-131z"/>
   <path class="fil3" d="M2298 3404c51,13 89,60 89,116 0,22 -6,43 -17,61l0 0c-21,34 -59,57 -102,57 -44,0 -83,-24 -104,-59l0 0c-10,-17 -16,-38 -16,-59 0,-56 38,-103 90,-116l0 -257 60 0 0 257z"/>
   <path class="fil5" d="M2268 3392c7,0 15,0 22,2l0 -239 -44 0 0 239c7,-2 14,-2 22,-2zm38 5c21,7 39,18 54,32 23,24 38,56 38,91 0,36 -15,68 -38,91 -24,24 -56,38 -92,38 -36,0 -69,-14 -92,-38 -24,-23 -38,-55 -38,-91 0,-35 14,-67 38,-91 15,-14 33,-25 54,-32l0 -250 0 -8 8 0 60 0 8 0 0 8 0 250zm39 48c-20,-19 -47,-31 -77,-31 -30,0 -57,12 -77,31 -20,19 -32,46 -32,75 0,30 12,57 32,76 20,19 47,31 77,31 30,0 57,-12 77,-31 19,-19 31,-46 31,-76 0,-29 -12,-56 -31,-75z"/>
   <path class="fil3" d="M2098 3220l340 0c-77,-53 -139,-180 -136,-227 3,-36 30,-126 31,-161 3,-51 -46,-78 -47,-122 -1,-59 30,-76 33,-139 2,-31 -43,-83 -50,-126 -6,-42 6,-74 -1,-111 -6,39 -34,101 -31,149 3,40 38,67 32,107 -7,52 -54,103 -54,144 -1,58 50,61 44,118 -4,43 -67,85 -71,126 -6,52 47,87 31,139 -12,39 -83,78 -121,103z"/>
   <path class="fil5" d="M2125 3212l289 0c-28,-25 -54,-58 -75,-93 -29,-49 -47,-100 -45,-127 1,-18 8,-48 15,-79 8,-32 15,-64 16,-81 1,-25 -11,-44 -23,-63 -12,-18 -24,-36 -24,-59 -1,-32 8,-52 16,-73 8,-18 15,-37 17,-67 1,-13 -10,-34 -22,-55 -12,-22 -24,-46 -28,-68l0 0c-3,-19 -2,-36 -1,-51 -8,29 -16,60 -15,87 2,16 9,31 16,45 10,19 20,39 16,63 -3,27 -17,53 -30,78 -12,24 -24,46 -24,65 0,26 11,40 21,53 14,17 26,33 23,66 -2,24 -20,46 -38,68 -16,20 -31,40 -33,58 -2,22 7,41 16,60 12,25 24,50 15,80 -11,35 -62,68 -102,93zm313 17l-340 0 -27 0 22 -15c7,-5 15,-10 23,-15 38,-24 86,-55 95,-84 8,-25 -3,-47 -13,-69 -11,-21 -21,-42 -18,-69 2,-23 19,-44 37,-66 16,-20 32,-41 34,-60 3,-26 -8,-39 -19,-53 -13,-16 -26,-33 -25,-64 0,-23 12,-47 26,-72 12,-24 25,-49 28,-73 3,-20 -6,-36 -14,-54 -8,-16 -16,-32 -18,-51 -2,-33 9,-70 19,-104 5,-17 10,-34 12,-48l7 -46 9 46c4,20 2,38 1,56 -1,18 -3,36 0,56l0 0c3,20 15,42 27,63 12,24 24,46 23,64 -1,32 -10,53 -18,73 -8,19 -15,37 -15,66 0,18 11,34 21,50 14,21 28,43 26,73 -1,19 -8,51 -16,84 -7,30 -14,60 -15,77 -2,24 15,70 43,117 24,40 55,79 89,103l21 15 -25 0z"/>
   <path class="fil8" d="M3634 4625c252,20 534,-50 845,-205 -74,-43 -137,-92 -187,-154 73,-108 200,-200 219,-322 -227,167 -674,196 -877,298l0 383zm-2740 0c-253,20 -534,-50 -845,-205 74,-43 137,-92 187,-154 -73,-108 -200,-200 -220,-322 228,167 675,196 878,298l0 383z"/>
   <path class="fil5" d="M3650 4610c120,7 247,-5 380,-38 132,-32 270,-83 415,-154 -28,-17 -54,-36 -79,-56 -32,-26 -61,-54 -87,-86 -4,-6 -5,-14 -1,-19l0 0c25,-37 56,-72 87,-106 48,-55 97,-109 120,-170 -137,85 -331,132 -509,174 -127,30 -245,59 -326,97l0 358zm388 -6c-142,35 -277,47 -405,37 -8,0 -15,-8 -15,-16l0 -383 0 0c0,-6 3,-12 9,-15 84,-42 208,-72 342,-103 190,-46 400,-96 533,-193l0 0c3,-3 7,-4 12,-3 9,1 15,9 13,18 -13,87 -76,157 -138,227 -27,30 -54,61 -77,92 22,26 47,50 75,72 30,25 64,47 100,68l0 1c3,1 5,3 6,6 4,8 1,18 -7,22 -157,79 -306,135 -448,170z"/>
   <path class="fil8" d="M3969 4478c48,-29 -189,-164 -335,-236l0 383c112,-44 224,-93 335,-147zm-3410 0c-48,-29 189,-164 335,-236l0 383c-113,-44 -224,-93 -335,-147z"/>
   <path class="fil5" d="M3986 4484c-2,3 -5,6 -9,8l0 0c0,0 -1,0 -1,0 -56,28 -112,54 -168,78 -55,24 -111,47 -167,69 -2,1 -4,2 -7,2 -9,0 -16,-7 -16,-16l0 -383 0 0c0,-2 0,-5 1,-7 4,-8 14,-12 22,-8 89,44 211,111 283,164 23,16 41,31 52,44 16,19 20,35 10,49zm-26 -20c-1,-1 -4,-2 -9,-7 -9,-11 -25,-25 -46,-39 -64,-47 -170,-107 -255,-150l0 333c49,-19 97,-40 146,-61 55,-24 110,-49 164,-76z"/>
   <path class="fil5" d="M551 4492c-4,-2 -7,-5 -9,-8 -11,-14 -6,-30 10,-49 11,-13 29,-28 51,-44 73,-53 195,-120 283,-164 8,-4 18,0 22,8 1,2 2,5 2,7l0 0 0 383c0,9 -7,16 -16,16 -3,0 -5,-1 -8,-2 -56,-22 -111,-45 -167,-69 -56,-24 -111,-50 -167,-78 -1,0 -1,0 -1,0l0 0zm25 -35c-4,5 -8,6 -8,7 54,27 109,52 164,76 48,21 97,42 145,61l0 -333c-84,43 -190,103 -255,150 -20,14 -36,28 -46,39z"/>
   <path class="fil5" d="M894 4641c-127,10 -262,-2 -405,-37 -142,-35 -291,-91 -447,-170 -8,-4 -12,-14 -8,-22 2,-3 4,-5 7,-6l0 -1c36,-21 69,-43 100,-68 27,-22 52,-46 74,-72 -22,-31 -49,-62 -76,-92 -63,-70 -125,-140 -139,-227 -1,-9 5,-17 14,-18 4,-1 8,0 12,3l0 0c132,97 342,147 533,193 133,31 257,61 342,103 6,3 9,9 9,15l0 0 0 383c0,8 -7,16 -16,16zm-397 -69c134,33 260,45 380,38l0 -358c-81,-38 -199,-67 -326,-97 -177,-42 -371,-89 -508,-174 23,61 71,115 120,170 30,34 61,69 86,106l0 0c4,5 4,13 -1,19 -25,32 -54,60 -87,86 -24,20 -50,39 -78,56 144,71 282,122 414,154z"/>
   <path class="fil8" d="M559 4478c1059,519 2190,557 3410,0l0 471c-1190,445 -2324,425 -3410,0l0 -471z"/>
   <path class="fil5" d="M567 4464c527,258 1072,396 1637,401 565,5 1150,-124 1758,-402 8,-4 18,0 22,8 1,2 1,4 1,7l0 0 0 471c0,7 -5,14 -12,16 -596,222 -1178,329 -1748,326 -570,-2 -1127,-114 -1672,-327 -7,-2 -10,-9 -10,-15l0 0 0 -471c0,-9 7,-17 16,-17 3,0 6,1 8,3zm1637 434c-562,-5 -1104,-141 -1629,-394l0 434c538,209 1088,319 1650,321 563,2 1138,-102 1727,-321l0 -435c-603,272 -1186,399 -1748,395z"/>
   <path class="fil5" d="M683 4782l26 6c0,14 1,25 5,33 3,8 9,14 17,17 8,4 15,3 20,0 5,-4 8,-10 9,-17 1,-5 1,-9 -1,-14 -1,-4 -3,-8 -7,-12 -3,-3 -9,-9 -19,-17 -13,-11 -22,-22 -26,-32 -6,-15 -8,-30 -5,-46 2,-10 5,-19 10,-27 5,-7 12,-12 19,-13 8,-2 17,-1 27,3 16,6 27,17 33,31 6,15 8,32 5,51l-26 -10c1,-11 0,-19 -3,-25 -3,-6 -8,-11 -15,-14 -8,-3 -14,-3 -19,1 -3,2 -5,5 -6,11 -1,4 0,9 2,13 2,6 9,14 21,24 12,9 20,18 25,26 6,7 9,16 11,26 2,10 2,21 0,34 -2,12 -6,22 -11,30 -6,9 -13,14 -21,16 -9,1 -18,0 -29,-5 -16,-6 -28,-17 -35,-32 -6,-16 -9,-35 -7,-58zm115 117l31 -203 95 37 -5 34 -69 -26 -7 45 64 24 -5 34 -64 -24 -9 55 72 27 -5 34 -98 -37zm120 46l29 -204 41 15c16,6 26,10 31,14 6,6 12,15 15,27 4,12 4,26 2,42 -2,12 -5,22 -9,30 -4,7 -8,13 -14,16 -5,3 -10,5 -14,5 -7,0 -16,-3 -28,-7l-16 -6 -11 77 -26 -9zm50 -160l-9 58 15 5c10,3 17,5 20,4 4,-1 7,-3 10,-7 3,-4 4,-9 5,-15 1,-7 1,-14 -1,-20 -2,-6 -5,-10 -9,-13 -3,-2 -10,-4 -19,-8l-12 -4zm96 -3l26 9 -14 111c-3,17 -4,29 -4,34 0,9 2,16 5,23 4,6 9,10 16,13 8,2 14,2 18,-2 4,-4 7,-9 9,-16 2,-6 3,-18 6,-34l14 -113 26 8 -14 108c-3,24 -6,42 -8,51 -3,10 -7,18 -11,23 -5,6 -11,10 -18,12 -7,2 -15,2 -25,-2 -13,-4 -22,-9 -27,-15 -6,-7 -10,-14 -13,-23 -3,-8 -4,-16 -5,-25 0,-12 2,-30 5,-53l14 -109zm195 195l24 19c-6,22 -15,37 -25,45 -10,8 -22,10 -36,6 -18,-5 -31,-18 -40,-40 -8,-22 -11,-49 -7,-82 4,-34 13,-59 26,-74 13,-16 29,-21 47,-15 16,4 28,16 36,33 5,11 8,25 9,42l-27 2c0,-11 -2,-20 -7,-28 -4,-7 -9,-12 -16,-14 -10,-3 -18,0 -25,9 -8,9 -13,26 -16,50 -3,26 -2,46 3,58 4,13 11,21 21,24 7,2 13,0 19,-6 6,-5 11,-15 14,-29zm59 -119l26 7 -10 111c-2,18 -3,30 -3,35 1,9 3,16 7,22 3,6 9,10 16,12 7,2 13,1 17,-3 5,-4 7,-10 9,-17 1,-6 3,-18 4,-34l11 -114 26 6 -10 108c-2,25 -4,42 -7,52 -2,10 -6,18 -10,24 -5,6 -10,11 -17,14 -7,2 -15,2 -26,0 -12,-3 -21,-7 -27,-13 -6,-7 -11,-14 -14,-22 -3,-8 -4,-16 -5,-24 0,-13 0,-30 2,-53l11 -111zm112 238l17 -207 26 5 -7 92 61 -81 35 7 -56 71 42 137 -34 -7 -28 -105 -24 31 -5 62 -27 -5zm244 -165l26 5 -9 131c-1,17 -3,30 -5,39 -4,12 -9,21 -16,27 -7,6 -17,8 -28,7 -12,-3 -22,-10 -28,-23 -6,-12 -9,-30 -7,-52l25 0c0,12 0,20 2,25 2,8 6,13 12,14 6,1 10,-1 13,-6 2,-5 4,-16 6,-33l9 -134zm159 230l-29 -3 -9 -49 -53 -6 -13 47 -28 -4 60 -202 28 3 44 214zm-45 -88l-15 -79 -21 75 36 4zm59 91l7 -209 39 4 19 144 28 -140 40 3 -7 208 -24 -2 5 -164 -31 162 -26 -2 -20 -166 -6 164 -24 -2zm157 -196l53 2c10,1 18,2 23,4 5,1 10,4 14,9 4,4 7,10 9,18 3,7 4,15 4,24 0,10 -2,19 -5,27 -4,8 -9,14 -14,17 8,5 14,11 18,20 4,9 6,20 6,32 -1,10 -2,19 -5,28 -3,8 -7,15 -12,21 -5,5 -11,8 -18,9 -5,0 -15,0 -32,-1l-45 -2 4 -208zm26 36l-1 48 18 1c10,0 16,0 19,0 4,-1 8,-3 11,-7 2,-4 4,-9 4,-16 0,-7 -1,-12 -3,-16 -2,-4 -6,-7 -10,-8 -3,0 -10,-1 -23,-2l-15 0zm-2 82l-1 56 25 1c10,1 16,1 18,0 4,-1 8,-3 10,-8 3,-4 4,-10 4,-17 0,-7 -1,-12 -2,-16 -2,-5 -5,-8 -8,-10 -4,-3 -12,-4 -24,-5l-22 -1zm104 96l2 -209 27 1 -2 209 -27 -1zm96 -66l26 -4c1,13 5,24 9,30 5,6 12,10 20,9 8,0 15,-2 19,-8 4,-6 6,-13 6,-20 0,-5 -1,-10 -2,-13 -2,-3 -5,-6 -10,-9 -3,-2 -10,-5 -21,-9 -14,-5 -24,-12 -30,-20 -8,-12 -12,-26 -12,-42 0,-11 1,-21 5,-30 4,-10 9,-17 17,-22 7,-5 15,-7 25,-7 17,0 29,6 38,17 8,12 12,27 13,46l-27 2c-1,-11 -3,-18 -7,-23 -4,-5 -9,-7 -17,-7 -8,0 -14,2 -18,8 -3,3 -4,7 -4,13 0,5 1,9 4,12 3,5 11,9 24,14 13,5 23,10 29,15 6,5 11,12 15,21 3,9 5,20 5,33 0,12 -2,23 -6,34 -4,10 -10,18 -18,23 -8,5 -17,8 -29,8 -16,0 -29,-6 -38,-18 -9,-12 -14,-30 -16,-53zm130 65l-4 -208 98 -4 1 35 -71 3 0 46 66 -2 1 35 -66 3 1 56 73 -3 1 35 -100 4zm122 -4l-8 -208 40 -4 29 140 18 -145 40 -3 8 208 -25 2 -6 -164 -20 167 -25 2 -32 -161 6 164 -25 2zm143 -222l53 -7c10,-1 18,-1 23,-1 5,1 10,3 14,7 4,4 8,9 11,16 3,7 5,15 5,24 1,10 0,19 -3,27 -3,9 -7,15 -13,20 8,3 15,8 20,17 4,8 7,18 8,30 0,10 -1,19 -3,29 -3,9 -6,17 -11,23 -4,5 -10,9 -17,12 -4,1 -15,3 -32,5l-45 6 -10 -208zm28 31l3 48 17 -2c10,-2 17,-3 19,-3 5,-2 8,-5 11,-9 2,-5 3,-10 3,-17 -1,-6 -2,-11 -4,-15 -3,-4 -6,-6 -11,-6 -2,0 -10,0 -22,2l-16 2zm5 82l2 56 25 -3c9,-1 16,-2 18,-3 4,-2 7,-5 9,-10 3,-5 3,-11 3,-18 0,-6 -1,-12 -4,-16 -2,-4 -5,-7 -8,-8 -4,-2 -12,-2 -24,0l-21 2zm109 78l-13 -208 27 -4 13 208 -27 4zm53 -8l-13 -206 27 -4 10 171 66 -10 2 35 -92 14zm228 -41l-28 5 -15 -45 -52 10 -8 49 -28 6 36 -217 28 -5 67 197zm-54 -73l-24 -73 -12 80 36 -7zm69 70l-20 -206 25 -6 67 125 -13 -138 24 -6 20 206 -26 6 -66 -122 13 135 -24 6zm182 -45l-22 -204 26 -7 19 169 65 -18 3 35 -91 25zm86 -236l26 -7 13 111c2,17 4,29 5,34 2,8 6,14 11,18 4,3 10,4 18,2 7,-2 12,-6 15,-12 3,-6 5,-12 5,-20 0,-7 -1,-19 -3,-35l-13 -113 26 -8 13 108c2,24 4,42 4,53 -1,10 -2,20 -5,28 -3,8 -8,15 -13,21 -6,6 -14,10 -25,13 -12,4 -21,5 -28,2 -7,-3 -13,-7 -18,-13 -4,-6 -7,-13 -9,-21 -4,-11 -6,-28 -9,-51l-13 -110zm155 166l-27 -205 55 -18c13,-4 24,-6 30,-4 7,2 13,6 18,15 5,8 8,18 10,30 2,15 1,29 -4,41 -4,12 -12,21 -23,27 7,3 12,7 16,12 5,5 11,15 20,29l21 34 -32 11 -24 -39c-9,-13 -15,-22 -18,-25 -3,-3 -6,-5 -9,-6 -3,-1 -7,0 -13,2l-6 2 12 85 -26 9zm10 -127l19 -6c13,-4 21,-8 24,-10 2,-3 5,-7 6,-11 1,-5 1,-10 0,-17 -1,-7 -2,-12 -5,-15 -3,-4 -7,-5 -11,-5 -2,0 -9,2 -19,6l-21 6 7 52zm235 41l-28 10 -17 -42 -52 18 -4 50 -28 10 21 -221 28 -10 80 185zm-59 -64l-28 -69 -7 82 35 -13zm73 59l-34 -202 26 -10 13 79 51 -21 -14 -79 26 -11 34 201 -26 11 -15 -88 -50 21 15 88 -26 11z"/>
  </g>
 </g>
</svg>
